Async-Mono-Text-Bold.ufo
<glyph name="period" format="1">
  <advance width="600"/>
  <unicode hex="002E"/>
  <outline>
    <contour>
      <point x="254" y="168" type="curve" smooth="yes"/>
      <point x="224" y="168"/>
      <point x="206" y="113"/>
      <point x="206" y="36" type="curve" smooth="yes"/>
      <point x="206" y="0"/>
      <point x="244" y="-17"/>
      <point x="357" y="-17" type="curve" smooth="yes"/>
      <point x="382" y="-17"/>
      <point x="402" y="35"/>
      <point x="402" y="118" type="curve" smooth="yes"/>
      <point x="402" y="150"/>
      <point x="346" y="168"/>
    </contour>
  </outline>
</glyph>
<glyph name="a" format="1">
  <advance width="600"/>
  <unicode hex="0061"/>
  <outline>
    <contour>
      <point x="403" y="324" type="line"/>
      <point x="332" y="339"/>
      <point x="302" y="343"/>
      <point x="242" y="343" type="curve" smooth="yes"/>
      <point x="116" y="343"/>
      <point x="26" y="271"/>
      <point x="26" y="171" type="curve" smooth="yes"/>
      <point x="26" y="159" type="line" smooth="yes"/>
      <point x="26" y="52"/>
      <point x="92" y="-25"/>
      <point x="185" y="-25" type="curve" smooth="yes"/>
      <point x="275" y="-25"/>
      <point x="339" y="18"/>
      <point x="357" y="92" type="curve"/>
      <point x="381" y="92" type="line"/>
      <point x="408" y="175" type="line"/>
      <point x="315" y="124"/>
      <point x="243" y="101"/>
      <point x="170" y="101" type="curve" smooth="yes"/>
      <point x="122" y="101"/>
      <point x="94" y="118"/>
      <point x="82" y="154" type="curve"/>
      <point x="72" y="105" type="line"/>
      <point x="138" y="93" type="line"/>
      <point x="128" y="112"/>
      <point x="124" y="128"/>
      <point x="124" y="149" type="curve" smooth="yes"/>
      <point x="124" y="201"/>
      <point x="170" y="234"/>
      <point x="242" y="234" type="curve" smooth="yes"/>
      <point x="292" y="234"/>
      <point x="327" y="230"/>
      <point x="383" y="219" type="curve"/>
    </contour>
    <contour>
      <point x="67" y="501" type="line"/>
      <point x="67" y="434"/>
      <point x="97" y="409"/>
      <point x="126" y="409" type="curve" smooth="yes"/>
      <point x="181.36923076923077" y="409.0"/>
      <point x="220.7846153846154" y="437.0"/>
      <point x="309" y="437" type="curve" smooth="yes"/>
      <point x="340" y="437"/>
      <point x="368" y="434"/>
      <point x="395" y="426" type="curve"/>
      <point x="393" y="456" type="line"/>
      <point x="357" y="456" type="line"/>
      <point x="357" y="428"/>
      <point x="357" y="404"/>
      <point x="357" y="368" type="curve" smooth="yes"/>
      <point x="357" y="287"/>
      <point x="357" y="210"/>
      <point x="357" y="133" type="curve" smooth="yes"/>
      <point x="357" y="51"/>
      <point x="442" y="-12"/>
      <point x="495" y="-12" type="curve" smooth="yes"/>
      <point x="553" y="-12"/>
      <point x="574" y="30"/>
      <point x="574" y="153" type="curve"/>
      <point x="546" y="153" type="line"/>
      <point x="527" y="122"/>
      <point x="489" y="104"/>
      <point x="432" y="104" type="curve"/>
      <point x="479" y="91" type="line"/>
      <point x="479" y="105"/>
      <point x="479" y="115"/>
      <point x="479" y="127" type="curve" smooth="yes"/>
      <point x="479" y="173"/>
      <point x="479" y="258"/>
      <point x="479" y="359" type="curve" smooth="yes"/>
      <point x="479" y="456"/>
      <point x="394" y="555"/>
      <point x="272" y="555" type="curve" smooth="yes"/>
      <point x="200.20276497695852" y="555.0"/>
      <point x="130.331196927565" y="544.7342573324947"/>
      <point x="67" y="514" type="curve"/>
    </contour>
  </outline>
</glyph>
<glyph name="c" format="1">
  <advance width="600"/>
  <unicode hex="0063"/>
  <outline>
    <contour>
      <point x="540" y="352"/>
      <point x="540" y="398"/>
      <point x="540" y="442" type="curve" smooth="yes"/>
      <point x="540" y="496"/>
      <point x="464" y="548"/>
      <point x="392" y="548" type="curve" smooth="yes"/>
      <point x="223.03448275862067" y="548.0"/>
      <point x="56" y="447.5549295774648"/>
      <point x="56" y="265" type="curve" smooth="yes"/>
      <point x="56" y="190" type="line" smooth="yes"/>
      <point x="56" y="82"/>
      <point x="188" y="-25"/>
      <point x="330" y="-25" type="curve" smooth="yes"/>
      <point x="426.43636363636364" y="-25.0"/>
      <point x="538.0" y="32.0"/>
      <point x="538" y="75" type="curve" smooth="yes"/>
      <point x="538" y="120"/>
      <point x="538" y="153"/>
      <point x="538" y="180" type="curve"/>
      <point x="500" y="180" type="line"/>
      <point x="427.45888961107096" y="119.06546727329963"/>
      <point x="341.50943396226415" y="103.0"/>
      <point x="300" y="103" type="curve" smooth="yes"/>
      <point x="215.0" y="103.0"/>
      <point x="193.26177441654792" y="117.0300674436518"/>
      <point x="160" y="146" type="curve"/>
      <point x="155" y="87" type="line"/>
      <point x="201" y="89" type="line"/>
      <point x="190" y="116"/>
      <point x="186" y="135"/>
      <point x="186" y="162" type="curve" smooth="yes"/>
      <point x="186" y="238" type="line" smooth="yes"/>
      <point x="186" y="346.0111524163569"/>
      <point x="264.6096256684492" y="433.0"/>
      <point x="361" y="433" type="curve" smooth="yes"/>
      <point x="411" y="433"/>
      <point x="427" y="428"/>
      <point x="444" y="415" type="curve"/>
      <point x="459" y="456" type="line"/>
      <point x="399" y="472" type="line"/>
      <point x="399" y="446"/>
      <point x="399" y="403"/>
      <point x="399" y="373" type="curve" smooth="yes"/>
      <point x="399" y="348"/>
      <point x="435" y="317"/>
      <point x="501" y="317" type="curve"/>
      <point x="540" y="317" type="line"/>
    </contour>
  </outline>
</glyph>
<glyph name="e" format="1">
  <advance width="600"/>
  <unicode hex="0065"/>
  <outline>
    <contour>
      <point x="182" y="321" type="curve"/>
      <point x="151" y="275" type="line"/>
      <point x="178.8529761972154" y="234.56826035888085"/>
      <point x="239" y="219"/>
      <point x="326" y="219" type="curve" smooth="yes"/>
      <point x="458.0" y="219.0"/>
      <point x="545" y="296.0"/>
      <point x="545" y="373" type="curve" smooth="yes"/>
      <point x="545" y="407" type="line" smooth="yes"/>
      <point x="545" y="461.40157480314963"/>
      <point x="468.0" y="548.0"/>
      <point x="359" y="548" type="curve" smooth="yes"/>
      <point x="182.0" y="548.0"/>
      <point x="56" y="469.0"/>
      <point x="56" y="326" type="curve" smooth="yes"/>
      <point x="56.0" y="190.0" type="line" smooth="yes"/>
      <point x="56" y="55"/>
      <point x="171.24675324675326" y="-25.0"/>
      <point x="317" y="-25" type="curve" smooth="yes"/>
      <point x="445.1395348837209" y="-25.0"/>
      <point x="545.0" y="24.16363636363637"/>
      <point x="545" y="79" type="curve"/>
      <point x="545" y="121"/>
      <point x="545" y="153"/>
      <point x="545" y="174" type="curve"/>
      <point x="500" y="174" type="line"/>
      <point x="449.1183461246556" y="124.07837732985075"/>
      <point x="391.0" y="108.0"/>
      <point x="314" y="108" type="curve" smooth="yes"/>
      <point x="227" y="108"/>
      <point x="196.34462425913847" y="114.96682329268964"/>
      <point x="160.0" y="146.0" type="curve"/>
      <point x="155.0" y="87.0" type="line"/>
      <point x="196.0" y="89.0" type="line"/>
      <point x="187.0" y="133.0"/>
      <point x="186" y="147"/>
      <point x="186.0" y="162.0" type="curve" smooth="yes"/>
      <point x="186" y="298" type="line" smooth="yes"/>
      <point x="186" y="375.0"/>
      <point x="251.09756097560978" y="437.0"/>
      <point x="343" y="437" type="curve" smooth="yes"/>
      <point x="390.2153846153846" y="437.0"/>
      <point x="420" y="429"/>
      <point x="442" y="417" type="curve"/>
      <point x="471" y="444" type="line"/>
      <point x="414" y="470" type="line"/>
      <point x="418" y="450"/>
      <point x="420" y="439"/>
      <point x="420" y="405" type="curve" smooth="yes"/>
      <point x="420.0" y="346.9655172413793"/>
      <point x="385.0" y="306.0"/>
      <point x="256" y="306" type="curve" smooth="yes"/>
      <point x="233.0" y="306.0"/>
      <point x="209.8972526421661" y="309.84109894313355"/>
    </contour>
  </outline>
</glyph>
<glyph name="f" format="1">
  <advance width="600"/>
  <unicode hex="0066"/>
  <outline>
    <contour>
      <point x="329" y="655" type="curve"/>
      <point x="296" y="611" type="line"/>
      <point x="388" y="629"/>
      <point x="498.513513514" y="625.0"/>
      <point x="550" y="625" type="curve"/>
      <point x="550" y="673" type="line"/>
      <point x="550" y="707"/>
      <point x="518" y="759"/>
      <point x="469" y="759" type="curve" smooth="yes"/>
      <point x="409.271604938" y="759.0"/>
      <point x="338" y="752"/>
      <point x="305" y="740" type="curve" smooth="yes"/>
      <point x="270" y="727"/>
      <point x="194.0" y="668.0"/>
      <point x="194" y="597" type="curve" smooth="yes"/>
      <point x="194" y="441"/>
      <point x="194.0" y="199.5518591"/>
      <point x="194" y="118" type="curve" smooth="yes"/>
      <point x="194" y="59"/>
      <point x="267" y="0"/>
      <point x="320" y="0" type="curve"/>
      <point x="339" y="0" type="line"/>
      <point x="332.0" y="43.0"/>
      <point x="329" y="82"/>
      <point x="329" y="123" type="curve" smooth="yes"/>
      <point x="329" y="234"/>
      <point x="329" y="517"/>
    </contour>
    <contour>
      <point x="36" y="121" type="curve"/>
      <point x="36" y="75" type="line" smooth="yes"/>
      <point x="36" y="29"/>
      <point x="71" y="0"/>
      <point x="111" y="0" type="curve" smooth="yes"/>
      <point x="152" y="0"/>
      <point x="304" y="0"/>
      <point x="354" y="0" type="curve" smooth="yes"/>
      <point x="385" y="0"/>
      <point x="536" y="0"/>
      <point x="564" y="0" type="curve"/>
      <point x="564" y="35" type="line" smooth="yes"/>
      <point x="564" y="88"/>
      <point x="532" y="121"/>
      <point x="508" y="121" type="curve" smooth="yes"/>
      <point x="480" y="121"/>
      <point x="308" y="121"/>
      <point x="269" y="121" type="curve" smooth="yes"/>
      <point x="215" y="121"/>
      <point x="66" y="121"/>
    </contour>
    <contour>
      <point x="36" y="493" type="curve"/>
      <point x="36" y="447" type="line" smooth="yes"/>
      <point x="36" y="401"/>
      <point x="71" y="372"/>
      <point x="111" y="372" type="curve" smooth="yes"/>
      <point x="152" y="372"/>
      <point x="304" y="372"/>
      <point x="354" y="372" type="curve" smooth="yes"/>
      <point x="385" y="372"/>
      <point x="536" y="372"/>
      <point x="564" y="372" type="curve"/>
      <point x="564" y="407" type="line" smooth="yes"/>
      <point x="564" y="460"/>
      <point x="532" y="493"/>
      <point x="508" y="493" type="curve" smooth="yes"/>
      <point x="480" y="493"/>
      <point x="308" y="493"/>
      <point x="269" y="493" type="curve" smooth="yes"/>
      <point x="215" y="493"/>
      <point x="66" y="493"/>
    </contour>
  </outline>
</glyph>
<glyph name="g" format="1">
  <advance width="600"/>
  <unicode hex="0067"/>
  <outline>
    <contour>
      <point x="555.0" y="537.0" type="curve" smooth="yes"/>
      <point x="547.0" y="545.0"/>
      <point x="513.0" y="555.0"/>
      <point x="365.0" y="555.0" type="curve" smooth="yes"/>
      <point x="175.0" y="555.0"/>
      <point x="59" y="480.6476683937824"/>
      <point x="59" y="350" type="curve" smooth="yes"/>
      <point x="59" y="305" type="line" smooth="yes"/>
      <point x="59" y="227.0816326530612"/>
      <point x="148.0" y="121.0"/>
      <point x="311.0" y="121.0" type="curve" smooth="yes"/>
      <point x="422.0" y="121.0"/>
      <point x="511" y="191"/>
      <point x="511" y="283" type="curve" smooth="yes"/>
      <point x="511" y="313" type="line" smooth="yes"/>
      <point x="511" y="365"/>
      <point x="483" y="407"/>
      <point x="409.0" y="435.0" type="curve"/>
      <point x="409.0" y="453.0" type="line"/>
      <point x="300.0" y="453.0" type="line"/>
      <point x="371.0" y="417.0"/>
      <point x="409" y="373"/>
      <point x="409" y="313" type="curve" smooth="yes"/>
      <point x="409" y="259"/>
      <point x="347" y="230"/>
      <point x="276" y="230" type="curve" smooth="yes"/>
      <point x="212" y="230"/>
      <point x="170.0" y="250.0"/>
      <point x="121.0" y="279.0" type="curve"/>
      <point x="134.0" y="238.0" type="line"/>
      <point x="168.0" y="238.0" type="line"/>
      <point x="150.0" y="260.0"/>
      <point x="145.0" y="274.0"/>
      <point x="145.0" y="300.0" type="curve" smooth="yes"/>
      <point x="145.0" y="389.0"/>
      <point x="229.0" y="443.0"/>
      <point x="369.0" y="443.0" type="curve" smooth="yes"/>
      <point x="449.0" y="443.0"/>
      <point x="495.0" y="437.0"/>
      <point x="554.0" y="424.0" type="curve"/>
      <point x="585.0" y="424.0" type="line"/>
      <point x="585.0" y="466.0" type="line"/>
      <point x="585.0" y="499.0"/>
      <point x="575.0" y="517.0"/>
    </contour>
    <contour>
      <point x="183" y="186" type="line"/>
      <point x="78" y="140"/>
      <point x="40" y="68"/>
      <point x="40" y="17" type="curve" smooth="yes"/>
      <point x="40.0" y="-25.622950819672134"/>
      <point x="93.0" y="-87.0"/>
      <point x="144" y="-87" type="curve" smooth="yes"/>
      <point x="236.0" y="-87.0"/>
      <point x="310.0" y="-87.0"/>
      <point x="386" y="-87" type="curve" smooth="yes"/>
      <point x="423" y="-87"/>
      <point x="444" y="-94"/>
      <point x="468" y="-112" type="curve"/>
      <point x="437" y="-67" type="line"/>
      <point x="437.0" y="-136.0"/>
      <point x="414" y="-177"/>
      <point x="369" y="-206" type="curve"/>
      <point x="369" y="-241" type="line"/>
      <point x="454" y="-241"/>
      <point x="561.0" y="-195.0"/>
      <point x="561" y="-115" type="curve" smooth="yes"/>
      <point x="561" y="-55"/>
      <point x="532" y="-15"/>
      <point x="513" y="4" type="curve" smooth="yes"/>
      <point x="489" y="28"/>
      <point x="468.8974358974359" y="36.0"/>
      <point x="384" y="36" type="curve" smooth="yes"/>
      <point x="315.0" y="36.0"/>
      <point x="197.0" y="36.0"/>
      <point x="118" y="36" type="curve"/>
      <point x="169" y="-3" type="line"/>
      <point x="162" y="14"/>
      <point x="160" y="21"/>
      <point x="160" y="45" type="curve" smooth="yes"/>
      <point x="160" y="73"/>
      <point x="178" y="124"/>
      <point x="205" y="152" type="curve"/>
    </contour>
  </outline>
</glyph>
<glyph name="i" format="1">
  <advance width="600"/>
  <unicode hex="0069"/>
  <outline>
    <contour>
      <point x="36" y="121" type="curve"/>
      <point x="36" y="75" type="line" smooth="yes"/>
      <point x="36" y="29"/>
      <point x="71" y="0"/>
      <point x="111" y="0" type="curve" smooth="yes"/>
      <point x="152" y="0"/>
      <point x="304" y="0"/>
      <point x="354" y="0" type="curve" smooth="yes"/>
      <point x="385" y="0"/>
      <point x="536" y="0"/>
      <point x="564" y="0" type="curve"/>
      <point x="564" y="35" type="line" smooth="yes"/>
      <point x="564" y="88"/>
      <point x="532" y="121"/>
      <point x="508" y="121" type="curve" smooth="yes"/>
      <point x="480" y="121"/>
      <point x="308" y="121"/>
      <point x="269" y="121" type="curve" smooth="yes"/>
      <point x="215" y="121"/>
      <point x="66" y="121"/>
    </contour>
    <contour>
      <point x="249" y="530" type="line"/>
      <point x="249" y="385"/>
      <point x="249" y="236"/>
      <point x="249" y="118" type="curve" smooth="yes"/>
      <point x="249" y="59"/>
      <point x="303" y="0"/>
      <point x="356" y="0" type="curve"/>
      <point x="381" y="0" type="line"/>
      <point x="381" y="45"/>
      <point x="381" y="82"/>
      <point x="381" y="123" type="curve" smooth="yes"/>
      <point x="381" y="239"/>
      <point x="381" y="341"/>
      <point x="381" y="439" type="curve" smooth="yes"/>
      <point x="381" y="479"/>
      <point x="343" y="530"/>
      <point x="288" y="530" type="curve"/>
    </contour>
    <contour>
      <point x="56" y="530" type="curve"/>
      <point x="56" y="484" type="line"/>
      <point x="56" y="438"/>
      <point x="91" y="409"/>
      <point x="131" y="409" type="curve" smooth="yes"/>
      <point x="172" y="409"/>
      <point x="217" y="409"/>
      <point x="267" y="409" type="curve" smooth="yes"/>
      <point x="298" y="409"/>
      <point x="315" y="409"/>
      <point x="343" y="409" type="curve"/>
      <point x="345" y="480"/>
      <point x="316" y="530"/>
      <point x="287" y="530" type="curve" smooth="yes"/>
      <point x="220" y="530"/>
      <point x="108" y="530"/>
    </contour>
    <contour>
      <point x="287" y="779" type="curve" smooth="yes"/>
      <point x="237" y="779"/>
      <point x="217" y="747"/>
      <point x="217" y="668" type="curve" smooth="yes"/>
      <point x="217" y="622"/>
      <point x="253" y="604"/>
      <point x="346" y="604" type="curve" smooth="yes"/>
      <point x="395" y="604"/>
      <point x="413" y="635"/>
      <point x="413" y="720" type="curve" smooth="yes"/>
      <point x="413" y="757"/>
      <point x="366" y="779"/>
    </contour>
  </outline>
</glyph>
<glyph name="j" format="1">
  <advance width="600"/>
  <unicode hex="006A"/>
  <outline>
    <contour>
      <point x="350" y="771" type="curve" smooth="yes"/>
      <point x="324" y="771"/>
      <point x="306" y="720"/>
      <point x="306" y="649" type="curve" smooth="yes"/>
      <point x="306" y="613"/>
      <point x="344" y="596"/>
      <point x="448" y="596" type="curve" smooth="yes"/>
      <point x="482" y="596"/>
      <point x="502" y="644"/>
      <point x="502" y="726" type="curve" smooth="yes"/>
      <point x="502" y="753"/>
      <point x="446" y="771"/>
    </contour>
    <contour>
      <point x="56" y="530" type="curve"/>
      <point x="56" y="484" type="line"/>
      <point x="56" y="438"/>
      <point x="91" y="409"/>
      <point x="131" y="409" type="curve" smooth="yes"/>
      <point x="200.33823529411762" y="409.0"/>
      <point x="276.44117647058823" y="409.0"/>
      <point x="361" y="409" type="curve" smooth="yes"/>
      <point x="392" y="409"/>
      <point x="409" y="409"/>
      <point x="437" y="409" type="curve"/>
      <point x="439" y="480"/>
      <point x="410" y="530"/>
      <point x="381" y="530" type="curve" smooth="yes"/>
      <point x="286.73593073593076" y="530.0"/>
      <point x="129.16017316017314" y="530.0"/>
    </contour>
    <contour>
      <point x="372" y="-119" type="curve"/>
      <point x="405" y="-75" type="line"/>
      <point x="285.42666401617" y="-98.4676640715928"/>
      <point x="193.77027027027026" y="-107.0"/>
      <point x="97" y="-107" type="curve"/>
      <point x="97" y="-155" type="line"/>
      <point x="97" y="-189"/>
      <point x="129" y="-241"/>
      <point x="178" y="-241" type="curve" smooth="yes"/>
      <point x="257.36893203883494" y="-241.0"/>
      <point x="346.2864323889386" y="-222.18789058941275"/>
      <point x="396" y="-204" type="curve" smooth="yes"/>
      <point x="431" y="-191"/>
      <point x="507" y="-132"/>
      <point x="507" y="-61" type="curve" smooth="yes"/>
      <point x="507.0" y="93.13441955193483"/>
      <point x="507.0" y="331.0271398747391"/>
      <point x="507" y="412" type="curve" smooth="yes"/>
      <point x="507" y="471"/>
      <point x="434" y="530"/>
      <point x="381" y="530" type="curve"/>
      <point x="362" y="530" type="line"/>
      <point x="369" y="487"/>
      <point x="372" y="448"/>
      <point x="372" y="407" type="curve" smooth="yes"/>
      <point x="372.0" y="297.2518796992481"/>
      <point x="372.0" y="17.33455882352942"/>
    </contour>
  </outline>
</glyph>
<glyph name="l" format="1">
  <advance width="600"/>
  <unicode hex="006C"/>
  <outline>
    <contour>
      <point x="36" y="121" type="curve"/>
      <point x="36" y="75" type="line" smooth="yes"/>
      <point x="36" y="29"/>
      <point x="71" y="0"/>
      <point x="111" y="0" type="curve" smooth="yes"/>
      <point x="152" y="0"/>
      <point x="304" y="0"/>
      <point x="354" y="0" type="curve" smooth="yes"/>
      <point x="385" y="0"/>
      <point x="536" y="0"/>
      <point x="564" y="0" type="curve"/>
      <point x="564" y="35" type="line" smooth="yes"/>
      <point x="564" y="88"/>
      <point x="532" y="121"/>
      <point x="508" y="121" type="curve" smooth="yes"/>
      <point x="480" y="121"/>
      <point x="308" y="121"/>
      <point x="269" y="121" type="curve" smooth="yes"/>
      <point x="215" y="121"/>
      <point x="66" y="121"/>
    </contour>
    <contour>
      <point x="231" y="759" type="line"/>
      <point x="231" y="614"/>
      <point x="231" y="236"/>
      <point x="231" y="118" type="curve" smooth="yes"/>
      <point x="231" y="59"/>
      <point x="285" y="0"/>
      <point x="338" y="0" type="curve"/>
      <point x="380" y="0" type="line"/>
      <point x="380" y="45"/>
      <point x="380" y="82"/>
      <point x="380" y="123" type="curve" smooth="yes"/>
      <point x="380" y="239"/>
      <point x="380" y="570"/>
      <point x="380" y="668" type="curve" smooth="yes"/>
      <point x="380" y="708"/>
      <point x="342" y="759"/>
      <point x="287" y="759" type="curve"/>
    </contour>
    <contour>
      <point x="56" y="759" type="curve"/>
      <point x="56" y="713" type="line"/>
      <point x="56" y="667"/>
      <point x="91" y="638"/>
      <point x="131" y="638" type="curve" smooth="yes"/>
      <point x="172" y="638"/>
      <point x="217" y="638"/>
      <point x="267" y="638" type="curve" smooth="yes"/>
      <point x="298" y="638"/>
      <point x="332" y="638"/>
      <point x="360" y="638" type="curve"/>
      <point x="362" y="709"/>
      <point x="333" y="759"/>
      <point x="304" y="759" type="curve" smooth="yes"/>
      <point x="237" y="759"/>
      <point x="108" y="759"/>
    </contour>
  </outline>
</glyph>
<glyph name="m" format="1">
  <advance width="600"/>
  <unicode hex="006D"/>
  <outline>
    <contour>
      <point x="137" y="426" type="curve"/>
      <point x="101" y="404"/>
      <point x="104" y="372"/>
      <point x="104" y="315" type="curve"/>
      <point x="172" y="373"/>
      <point x="217" y="407"/>
      <point x="306" y="408" type="curve"/>
      <point x="250" y="455" type="line"/>
      <point x="250" y="301"/>
      <point x="250" y="180"/>
      <point x="250" y="82" type="curve" smooth="yes"/>
      <point x="250" y="23"/>
      <point x="275" y="-6"/>
      <point x="305" y="-6" type="curve"/>
      <point x="352" y="-6" type="line"/>
      <point x="352" y="35"/>
      <point x="352" y="76"/>
      <point x="352" y="117" type="curve" smooth="yes"/>
      <point x="352" y="247"/>
      <point x="352" y="363"/>
      <point x="352" y="451" type="curve"/>
      <point x="352" y="500"/>
      <point x="323" y="543"/>
      <point x="282" y="543" type="curve"/>
      <point x="245" y="543"/>
      <point x="200" y="511"/>
    </contour>
    <contour>
      <point x="45" y="536" type="line"/>
      <point x="45" y="391"/>
      <point x="45" y="201"/>
      <point x="45" y="83" type="curve" smooth="yes"/>
      <point x="45" y="24"/>
      <point x="73" y="-6"/>
      <point x="126" y="-6" type="curve"/>
      <point x="168" y="-6" type="line"/>
      <point x="168" y="39"/>
      <point x="168" y="76"/>
      <point x="168" y="117" type="curve" smooth="yes"/>
      <point x="168" y="233"/>
      <point x="168" y="347"/>
      <point x="168" y="445" type="curve" smooth="yes"/>
      <point x="168" y="485"/>
      <point x="156" y="536"/>
      <point x="101" y="536" type="curve"/>
    </contour>
    <contour>
      <point x="321" y="426" type="curve"/>
      <point x="285" y="404"/>
      <point x="288" y="372"/>
      <point x="288" y="315" type="curve"/>
      <point x="356" y="373"/>
      <point x="401" y="407"/>
      <point x="490" y="408" type="curve"/>
      <point x="434" y="455" type="line"/>
      <point x="434" y="301"/>
      <point x="434" y="180"/>
      <point x="434" y="82" type="curve" smooth="yes"/>
      <point x="434" y="23"/>
      <point x="468" y="-6"/>
      <point x="510" y="-6" type="curve"/>
      <point x="557" y="-6" type="line"/>
      <point x="557" y="35"/>
      <point x="557" y="76"/>
      <point x="557" y="117" type="curve" smooth="yes"/>
      <point x="557" y="247"/>
      <point x="557" y="363"/>
      <point x="557" y="451" type="curve"/>
      <point x="557" y="500"/>
      <point x="519" y="543"/>
      <point x="466" y="543" type="curve"/>
      <point x="429" y="543"/>
      <point x="384" y="511"/>
    </contour>
  </outline>
</glyph>
<glyph name="n" format="1">
  <advance width="600"/>
  <unicode hex="006E"/>
  <outline>
    <contour>
      <point x="170" y="426" type="curve"/>
      <point x="169" y="404"/>
      <point x="172" y="372"/>
      <point x="172" y="315" type="curve"/>
      <point x="250" y="381"/>
      <point x="319" y="407"/>
      <point x="434" y="408" type="curve"/>
      <point x="378" y="455" type="line"/>
      <point x="378" y="301"/>
      <point x="378" y="180"/>
      <point x="378" y="82" type="curve" smooth="yes"/>
      <point x="378" y="23"/>
      <point x="427" y="-6"/>
      <point x="480" y="-6" type="curve"/>
      <point x="527" y="-6" type="line"/>
      <point x="527" y="35"/>
      <point x="527" y="76"/>
      <point x="527" y="117" type="curve" smooth="yes"/>
      <point x="527" y="239"/>
      <point x="527" y="348"/>
      <point x="527" y="431" type="curve"/>
      <point x="527" y="491"/>
      <point x="475" y="543"/>
      <point x="410" y="543" type="curve"/>
      <point x="360" y="543"/>
      <point x="284" y="514"/>
    </contour>
    <contour>
      <point x="69" y="536" type="line"/>
      <point x="69" y="391"/>
      <point x="69" y="201"/>
      <point x="69" y="83" type="curve" smooth="yes"/>
      <point x="69" y="24"/>
      <point x="123" y="-6"/>
      <point x="176" y="-6" type="curve"/>
      <point x="218" y="-6" type="line"/>
      <point x="218" y="39"/>
      <point x="218" y="76"/>
      <point x="218" y="117" type="curve" smooth="yes"/>
      <point x="218" y="233"/>
      <point x="218" y="347"/>
      <point x="218" y="445" type="curve" smooth="yes"/>
      <point x="218" y="485"/>
      <point x="180" y="536"/>
      <point x="125" y="536" type="curve"/>
    </contour>
  </outline>
</glyph>
<glyph name="o" format="1">
  <advance width="600"/>
  <unicode hex="006F"/>
  <outline>
    <contour>
      <point x="476" y="442" type="line"/>
      <point x="474" y="489"/>
      <point x="368" y="548"/>
      <point x="318" y="548" type="curve" smooth="yes"/>
      <point x="174" y="548"/>
      <point x="57" y="465"/>
      <point x="57" y="343" type="curve" smooth="yes"/>
      <point x="57" y="202" type="line" smooth="yes"/>
      <point x="57" y="63"/>
      <point x="191" y="-25"/>
      <point x="297" y="-25" type="curve"/>
      <point x="230" y="59" type="line"/>
      <point x="213" y="85"/>
      <point x="190" y="112"/>
      <point x="190" y="171" type="curve" smooth="yes"/>
      <point x="190" y="314" type="line" smooth="yes"/>
      <point x="190" y="374"/>
      <point x="243" y="438"/>
      <point x="337" y="438" type="curve" smooth="yes"/>
      <point x="380" y="438"/>
      <point x="399" y="433"/>
      <point x="430" y="420" type="curve"/>
    </contour>
    <contour>
      <point x="139" y="81" type="line"/>
      <point x="141" y="34"/>
      <point x="247" y="-25"/>
      <point x="297" y="-25" type="curve" smooth="yes"/>
      <point x="441" y="-25"/>
      <point x="558" y="58"/>
      <point x="558" y="180" type="curve" smooth="yes"/>
      <point x="558" y="321" type="line" smooth="yes"/>
      <point x="558" y="460"/>
      <point x="424" y="548"/>
      <point x="318" y="548" type="curve"/>
      <point x="385" y="464" type="line"/>
      <point x="402" y="438"/>
      <point x="425" y="411"/>
      <point x="425" y="352" type="curve" smooth="yes"/>
      <point x="425" y="209" type="line" smooth="yes"/>
      <point x="425" y="149"/>
      <point x="372" y="85"/>
      <point x="278" y="85" type="curve" smooth="yes"/>
      <point x="235" y="85"/>
      <point x="216" y="90"/>
      <point x="185" y="103" type="curve"/>
    </contour>
  </outline>
</glyph>
<glyph name="p" format="1">
  <advance width="600"/>
  <unicode hex="0070"/>
  <outline>
    <contour>
      <point x="206" y="73" type="line"/>
      <point x="236" y="12"/>
      <point x="283" y="-18"/>
      <point x="358" y="-18" type="curve" smooth="yes"/>
      <point x="438" y="-18"/>
      <point x="557" y="38"/>
      <point x="557" y="192" type="curve" smooth="yes"/>
      <point x="557" y="373" type="line" smooth="yes"/>
      <point x="557" y="478.769230769"/>
      <point x="450.0" y="548.0"/>
      <point x="389" y="548" type="curve" smooth="yes"/>
      <point x="296.0" y="548.0"/>
      <point x="228.536970769" y="469.883276857"/>
      <point x="183" y="404" type="curve"/>
      <point x="183" y="293" type="line"/>
      <point x="269" y="379"/>
      <point x="357" y="407"/>
      <point x="429" y="407" type="curve" smooth="yes"/>
      <point x="458" y="407"/>
      <point x="475" y="409"/>
      <point x="492" y="376" type="curve"/>
      <point x="488" y="436" type="line"/>
      <point x="395" y="437" type="line"/>
      <point x="405" y="419"/>
      <point x="408" y="391"/>
      <point x="408" y="368" type="curve" smooth="yes"/>
      <point x="408" y="213" type="line" smooth="yes"/>
      <point x="408" y="133"/>
      <point x="352" y="84"/>
      <point x="309" y="84" type="curve" smooth="yes"/>
      <point x="241" y="84"/>
      <point x="214" y="126"/>
      <point x="186" y="187" type="curve"/>
      <point x="186" y="73" type="line"/>
    </contour>
    <contour>
      <point x="199" y="-241" type="line"/>
      <point x="199.0" y="-79.7375565611"/>
      <point x="199.0" y="320.850678733"/>
      <point x="199" y="440" type="curve" smooth="yes"/>
      <point x="199" y="499"/>
      <point x="164" y="536"/>
      <point x="111" y="536" type="curve"/>
      <point x="50" y="536" type="line"/>
      <point x="50" y="489"/>
      <point x="50" y="454"/>
      <point x="50" y="413" type="curve" smooth="yes"/>
      <point x="50.0" y="294.116322702"/>
      <point x="50.0" y="-59.4333958724"/>
      <point x="50" y="-138" type="curve" smooth="yes"/>
      <point x="50" y="-198"/>
      <point x="82" y="-241"/>
      <point x="137" y="-241" type="curve"/>
    </contour>
  </outline>
</glyph>
<glyph name="q" format="1">
  <advance width="600"/>
  <unicode hex="0071"/>
  <outline>
    <contour>
      <point x="401" y="536" type="line"/>
      <point x="401" y="489"/>
      <point x="401" y="454"/>
      <point x="401" y="413" type="curve" smooth="yes"/>
      <point x="401.0" y="294.11632270168855"/>
      <point x="401.0" y="-59.43339587242026"/>
      <point x="401" y="-138" type="curve" smooth="yes"/>
      <point x="401" y="-198"/>
      <point x="433" y="-241"/>
      <point x="488" y="-241" type="curve"/>
      <point x="550" y="-241" type="line"/>
      <point x="550.0" y="-79.73755656108597"/>
      <point x="550.0" y="320.8506787330317"/>
      <point x="550" y="440" type="curve" smooth="yes"/>
      <point x="550" y="499"/>
      <point x="515" y="536"/>
      <point x="462" y="536" type="curve"/>
    </contour>
    <contour>
      <point x="394" y="457" type="line"/>
      <point x="359" y="519"/>
      <point x="310" y="548"/>
      <point x="239" y="548" type="curve" smooth="yes"/>
      <point x="147" y="548"/>
      <point x="43" y="496"/>
      <point x="43" y="348" type="curve" smooth="yes"/>
      <point x="43" y="157" type="line" smooth="yes"/>
      <point x="43" y="47"/>
      <point x="153" y="-25"/>
      <point x="214" y="-25" type="curve" smooth="yes"/>
      <point x="300" y="-25"/>
      <point x="365" y="41"/>
      <point x="425" y="117" type="curve"/>
      <point x="425" y="210" type="line"/>
      <point x="348" y="140"/>
      <point x="283" y="120"/>
      <point x="176" y="120" type="curve" smooth="yes"/>
      <point x="149" y="120"/>
      <point x="131" y="132"/>
      <point x="111" y="154" type="curve"/>
      <point x="115" y="94" type="line"/>
      <point x="198" y="69" type="line"/>
      <point x="193" y="100"/>
      <point x="192" y="131"/>
      <point x="192" y="162" type="curve" smooth="yes"/>
      <point x="192" y="329" type="line" smooth="yes"/>
      <point x="192" y="397"/>
      <point x="238" y="438"/>
      <point x="294" y="438" type="curve" smooth="yes"/>
      <point x="344" y="438"/>
      <point x="374" y="412"/>
      <point x="411" y="353" type="curve"/>
      <point x="426" y="457" type="line"/>
    </contour>
  </outline>
</glyph>
<glyph name="r" format="1">
  <advance width="600"/>
  <unicode hex="0072"/>
  <outline>
    <contour>
      <point x="295" y="426" type="curve"/>
      <point x="294" y="404"/>
      <point x="290" y="378"/>
      <point x="297" y="315" type="curve"/>
      <point x="354" y="400"/>
      <point x="393" y="420"/>
      <point x="466" y="429" type="curve"/>
      <point x="437" y="455" type="line"/>
      <point x="437.0" y="418.29545454545456"/>
      <point x="437" y="385"/>
      <point x="437" y="360" type="curve" smooth="yes"/>
      <point x="437" y="326"/>
      <point x="481.0" y="292.0"/>
      <point x="518" y="292" type="curve"/>
      <point x="563" y="292" type="line"/>
      <point x="563" y="355"/>
      <point x="563.0" y="412.0"/>
      <point x="563" y="459" type="curve" smooth="yes"/>
      <point x="563.0" y="499.0"/>
      <point x="507.1607142857143" y="543.0"/>
      <point x="457" y="543" type="curve" smooth="yes"/>
      <point x="414" y="543"/>
      <point x="365" y="512"/>
    </contour>
    <contour>
      <point x="36" y="121" type="curve"/>
      <point x="36" y="75" type="line" smooth="yes"/>
      <point x="36" y="29"/>
      <point x="71" y="0"/>
      <point x="111" y="0" type="curve" smooth="yes"/>
      <point x="152" y="0"/>
      <point x="304" y="0"/>
      <point x="354" y="0" type="curve" smooth="yes"/>
      <point x="376.14285714285717" y="0.0"/>
      <point x="484.0" y="0.0"/>
      <point x="504" y="0" type="curve"/>
      <point x="504" y="35" type="line" smooth="yes"/>
      <point x="504" y="88"/>
      <point x="472" y="121"/>
      <point x="448" y="121" type="curve" smooth="yes"/>
      <point x="427.02928870292885" y="121.0"/>
      <point x="298.2092050209205" y="121.0"/>
      <point x="269" y="121" type="curve" smooth="yes"/>
      <point x="215" y="121"/>
      <point x="66" y="121"/>
    </contour>
    <contour>
      <point x="195" y="530" type="line"/>
      <point x="195" y="385"/>
      <point x="195" y="236"/>
      <point x="195" y="118" type="curve" smooth="yes"/>
      <point x="195" y="59"/>
      <point x="249" y="0"/>
      <point x="302" y="0" type="curve"/>
      <point x="327" y="0" type="line"/>
      <point x="327" y="45"/>
      <point x="327" y="82"/>
      <point x="327" y="123" type="curve" smooth="yes"/>
      <point x="327" y="239"/>
      <point x="327" y="341"/>
      <point x="327" y="439" type="curve" smooth="yes"/>
      <point x="327" y="479"/>
      <point x="289" y="530"/>
      <point x="234" y="530" type="curve"/>
    </contour>
    <contour>
      <point x="56" y="530" type="curve"/>
      <point x="56" y="484" type="line"/>
      <point x="56" y="438"/>
      <point x="91" y="409"/>
      <point x="131" y="409" type="curve" smooth="yes"/>
      <point x="152.10294117647058" y="409.0"/>
      <point x="175.26470588235293" y="409.0"/>
      <point x="201" y="409" type="curve" smooth="yes"/>
      <point x="232" y="409"/>
      <point x="249" y="409"/>
      <point x="277" y="409" type="curve"/>
      <point x="279" y="480"/>
      <point x="250" y="530"/>
      <point x="221" y="530" type="curve" smooth="yes"/>
      <point x="173.14285714285714" y="530.0"/>
      <point x="93.14285714285714" y="530.0"/>
    </contour>
  </outline>
</glyph>
<glyph name="s" format="1">
  <advance width="600"/>
  <unicode hex="0073"/>
  <outline>
    <contour>
      <point x="357" y="555" type="curve" smooth="yes"/>
      <point x="194" y="555"/>
      <point x="87" y="486"/>
      <point x="87" y="391" type="curve" smooth="yes"/>
      <point x="87.0" y="302.0"/>
      <point x="163.36655153194397" y="249.0348126438407"/>
      <point x="244" y="228" type="curve" smooth="yes"/>
      <point x="313" y="210" type="line" smooth="yes"/>
      <point x="373.3501581847169" y="194.2564804735521"/>
      <point x="416.7007316928657" y="173.1418118673347"/>
      <point x="435" y="147" type="curve"/>
      <point x="440" y="175" type="line"/>
      <point x="402.74360180546756" y="131.35679068640488"/>
      <point x="377.0" y="114.0"/>
      <point x="309" y="114" type="curve" smooth="yes"/>
      <point x="218.0" y="114.0"/>
      <point x="144.57197202918218" y="136.35645221291435"/>
      <point x="100" y="193" type="curve"/>
      <point x="63" y="193" type="line"/>
      <point x="63" y="163"/>
      <point x="63" y="143"/>
      <point x="63" y="107" type="curve" smooth="yes"/>
      <point x="63.0" y="18.02127659574468"/>
      <point x="173.88936170212764" y="-16.0"/>
      <point x="316" y="-16" type="curve" smooth="yes"/>
      <point x="444" y="-16"/>
      <point x="545" y="55"/>
      <point x="545" y="147" type="curve" smooth="yes"/>
      <point x="545.0" y="212.32283464566927"/>
      <point x="491.3632157157377" y="252.64144291551315"/>
      <point x="361" y="283" type="curve" smooth="yes"/>
      <point x="288" y="300" type="line" smooth="yes"/>
      <point x="210.98665133295816" y="317.93461544300976"/>
      <point x="196.0022635618307" y="348.9889336977166"/>
      <point x="187" y="393" type="curve"/>
      <point x="187" y="361" type="line"/>
      <point x="225" y="418"/>
      <point x="296" y="441"/>
      <point x="353" y="441" type="curve" smooth="yes"/>
      <point x="367" y="441"/>
      <point x="383" y="438"/>
      <point x="400" y="432" type="curve"/>
      <point x="382" y="487" type="line"/>
      <point x="382" y="474"/>
      <point x="382" y="446"/>
      <point x="382" y="419" type="curve" smooth="yes"/>
      <point x="382" y="389"/>
      <point x="421" y="359"/>
      <point x="473" y="359" type="curve"/>
      <point x="512" y="359" type="line"/>
      <point x="512" y="390"/>
      <point x="512" y="412"/>
      <point x="512" y="439" type="curve" smooth="yes"/>
      <point x="512" y="486"/>
      <point x="431" y="555"/>
    </contour>
  </outline>
</glyph>
<glyph name="u" format="1">
  <advance width="600"/>
  <unicode hex="0075"/>
  <outline>
    <contour>
      <point x="427" y="104" type="curve"/>
      <point x="428" y="126"/>
      <point x="425" y="158"/>
      <point x="425" y="215" type="curve"/>
      <point x="347" y="149"/>
      <point x="278" y="123"/>
      <point x="163" y="122" type="curve"/>
      <point x="219" y="75" type="line"/>
      <point x="219" y="229"/>
      <point x="219" y="350"/>
      <point x="219" y="448" type="curve" smooth="yes"/>
      <point x="219" y="507"/>
      <point x="170" y="536"/>
      <point x="117" y="536" type="curve"/>
      <point x="70" y="536" type="line"/>
      <point x="70" y="495"/>
      <point x="70" y="454"/>
      <point x="70" y="413" type="curve" smooth="yes"/>
      <point x="70" y="291"/>
      <point x="70" y="182"/>
      <point x="70" y="99" type="curve"/>
      <point x="70" y="39"/>
      <point x="122" y="-13"/>
      <point x="187" y="-13" type="curve"/>
      <point x="237" y="-13"/>
      <point x="313" y="16"/>
    </contour>
    <contour>
      <point x="528" y="-6" type="line"/>
      <point x="528" y="139"/>
      <point x="528" y="329"/>
      <point x="528" y="447" type="curve" smooth="yes"/>
      <point x="528" y="506"/>
      <point x="474" y="536"/>
      <point x="421" y="536" type="curve"/>
      <point x="379" y="536" type="line"/>
      <point x="379" y="491"/>
      <point x="379" y="454"/>
      <point x="379" y="413" type="curve" smooth="yes"/>
      <point x="379" y="297"/>
      <point x="379" y="183"/>
      <point x="379" y="85" type="curve" smooth="yes"/>
      <point x="379" y="45"/>
      <point x="417" y="-6"/>
      <point x="472" y="-6" type="curve"/>
    </contour>
  </outline>
</glyph>
<glyph name="braceleft" format="1">
  <advance width="600"/>
  <unicode hex="007B"/>
  <outline>
    <contour>
      <point x="362" y="74"/>
      <point x="360" y="146"/>
      <point x="355" y="189" type="curve" smooth="yes"/>
      <point x="346" y="291"/>
      <point x="214" y="337"/>
      <point x="142" y="337" type="curve"/>
      <point x="126" y="237" type="line"/>
      <point x="170" y="237"/>
      <point x="197" y="231"/>
      <point x="249" y="204" type="curve"/>
      <point x="219" y="248" type="line"/>
      <point x="235" y="86"/>
      <point x="229" y="24"/>
      <point x="240" y="-21" type="curve" smooth="yes"/>
      <point x="246" y="-44"/>
      <point x="290" y="-112"/>
      <point x="341" y="-128" type="curve" smooth="yes"/>
      <point x="373" y="-138"/>
      <point x="479" y="-144"/>
      <point x="565" y="-144" type="curve"/>
      <point x="565" y="-123" type="line"/>
      <point x="554" y="-69"/>
      <point x="503" y="-10"/>
      <point x="469" y="-10" type="curve" smooth="yes"/>
      <point x="454" y="-10"/>
      <point x="422" y="-10"/>
      <point x="348" y="5" type="curve"/>
      <point x="383" y="-30" type="line"/>
    </contour>
    <contour>
      <point x="21" y="371" type="curve"/>
      <point x="21" y="346" type="line"/>
      <point x="21" y="308"/>
      <point x="84" y="237"/>
      <point x="126" y="237" type="curve" smooth="yes"/>
      <point x="148" y="237"/>
      <point x="190" y="250"/>
      <point x="230" y="274" type="curve"/>
      <point x="234" y="307" type="line"/>
      <point x="295" y="331"/>
      <point x="342" y="368"/>
      <point x="349" y="421" type="curve" smooth="yes"/>
      <point x="360" y="501"/>
      <point x="356" y="552"/>
      <point x="367" y="645" type="curve"/>
      <point x="333" y="610" type="line"/>
      <point x="438" y="627"/>
      <point x="520" y="629"/>
      <point x="561" y="629" type="curve"/>
      <point x="561" y="650" type="line"/>
      <point x="561" y="688"/>
      <point x="488" y="759"/>
      <point x="446" y="759" type="curve" smooth="yes"/>
      <point x="412" y="759"/>
      <point x="342" y="751"/>
      <point x="318" y="738" type="curve" smooth="yes"/>
      <point x="291" y="723"/>
      <point x="238" y="683"/>
      <point x="233" y="629" type="curve" smooth="yes"/>
      <point x="226" y="563"/>
      <point x="230" y="486"/>
      <point x="215" y="370" type="curve"/>
      <point x="244" y="414" type="line"/>
      <point x="170" y="376"/>
      <point x="124" y="371"/>
    </contour>
  </outline>
</glyph>
<glyph name="b.ver.001" format="1">
  <advance width="600"/>
  <note>
    Version created Wed Feb 21 21:09:47 2018
  </note>
  <outline>
    <contour>
      <point x="211" y="-11" type="line"/>
      <point x="211" y="149"/>
      <point x="211" y="545"/>
      <point x="211" y="663" type="curve" smooth="yes"/>
      <point x="211" y="722"/>
      <point x="176" y="759"/>
      <point x="123" y="759" type="curve"/>
      <point x="62" y="759" type="line"/>
      <point x="62" y="712"/>
      <point x="62" y="677"/>
      <point x="62" y="636" type="curve" smooth="yes"/>
      <point x="62" y="519"/>
      <point x="62" y="170"/>
      <point x="62" y="92" type="curve" smooth="yes"/>
      <point x="62" y="32"/>
      <point x="94" y="-11"/>
      <point x="149" y="-11" type="curve"/>
    </contour>
    <contour>
      <point x="190" y="103" type="line"/>
      <point x="229.08004605933826" y="24.839907881323484"/>
      <point x="281.0" y="-18.0"/>
      <point x="346" y="-18" type="curve" smooth="yes"/>
      <point x="452.2808510638298" y="-18.0"/>
      <point x="569.0" y="78.0"/>
      <point x="569" y="349" type="curve" smooth="yes"/>
      <point x="569" y="474"/>
      <point x="462" y="555"/>
      <point x="401" y="555" type="curve" smooth="yes"/>
      <point x="308.39449541284404" y="555.0"/>
      <point x="242.45642331643032" y="441.94682017558375"/>
      <point x="195" y="350" type="curve"/>
      <point x="195" y="239" type="line"/>
      <point x="281.46054643188734" y="349.04069545876575"/>
      <point x="368.5348837209302" y="407.0"/>
      <point x="441" y="407" type="curve" smooth="yes"/>
      <point x="470" y="407"/>
      <point x="487" y="409"/>
      <point x="504" y="376" type="curve"/>
      <point x="500" y="436" type="line"/>
      <point x="417" y="437" type="line"/>
      <point x="421" y="414"/>
      <point x="423" y="391"/>
      <point x="423" y="368" type="curve" smooth="yes"/>
      <point x="423.0" y="192.0"/>
      <point x="365.7709923664122" y="84.0"/>
      <point x="304" y="84" type="curve" smooth="yes"/>
      <point x="239.49532710280374" y="84.0"/>
      <point x="214" y="125"/>
      <point x="185" y="187" type="curve"/>
    </contour>
  </outline>
</glyph>
<glyph name="b.ver.002" format="1">
  <advance width="600"/>
  <note>
    Version created Wed Feb 21 21:26:23 2018
  </note>
  <outline>
    <contour>
      <point x="199" y="0" type="line"/>
      <point x="199.0" y="157.3887240356083"/>
      <point x="199.0" y="546.9258160237389"/>
      <point x="199" y="663" type="curve" smooth="yes"/>
      <point x="199" y="722"/>
      <point x="164" y="759"/>
      <point x="111" y="759" type="curve"/>
      <point x="50" y="759" type="line"/>
      <point x="50" y="712"/>
      <point x="50" y="677"/>
      <point x="50" y="636" type="curve" smooth="yes"/>
      <point x="50.0" y="521.3658088235294"/>
      <point x="50.0" y="179.42279411764707"/>
      <point x="50" y="103" type="curve" smooth="yes"/>
      <point x="50" y="43"/>
      <point x="82" y="0"/>
      <point x="137" y="0" type="curve"/>
    </contour>
    <contour>
      <point x="209" y="73" type="line"/>
      <point x="239" y="12"/>
      <point x="276" y="-18"/>
      <point x="349" y="-18" type="curve" smooth="yes"/>
      <point x="438" y="-18"/>
      <point x="557" y="38"/>
      <point x="557" y="192" type="curve" smooth="yes"/>
      <point x="557" y="373" type="line" smooth="yes"/>
      <point x="557" y="483"/>
      <point x="450" y="555"/>
      <point x="389" y="555" type="curve" smooth="yes"/>
      <point x="296" y="555"/>
      <point x="230" y="442"/>
      <point x="183" y="350" type="curve"/>
      <point x="183" y="239" type="line"/>
      <point x="269" y="349"/>
      <point x="357" y="407"/>
      <point x="429" y="407" type="curve" smooth="yes"/>
      <point x="458" y="407"/>
      <point x="475" y="409"/>
      <point x="492" y="376" type="curve"/>
      <point x="488" y="436" type="line"/>
      <point x="395" y="437" type="line"/>
      <point x="405" y="419"/>
      <point x="408" y="391"/>
      <point x="408" y="368" type="curve" smooth="yes"/>
      <point x="408" y="213" type="line" smooth="yes"/>
      <point x="408" y="133"/>
      <point x="352" y="84"/>
      <point x="309" y="84" type="curve" smooth="yes"/>
      <point x="241" y="84"/>
      <point x="217" y="126"/>
      <point x="189" y="187" type="curve"/>
      <point x="189" y="73" type="line"/>
    </contour>
  </outline>
</glyph>
